<?xml version="1.0" encoding="UTF-8"?>
<svg xmlns="http://www.w3.org/2000/svg" width="18" height="18" viewBox="0 0 18 18" fill="none">
  <g id="Component 1">
    <rect id="Rectangle 1160" width="18" height="18" rx="9" fill="url(#paint0_linear_668_706)"></rect>
    <path id="Vector" d="M13.7502 5.84406C13.652 5.75804 13.5327 5.70272 13.406 5.6844C13.2793 5.66609 13.1503 5.68552 13.0336 5.74048L10.8624 6.75372L9.60092 4.36699C9.54062 4.25556 9.45327 4.1629 9.34774 4.09843C9.24222 4.03396 9.1223 4 9.0002 4C8.8781 4 8.75819 4.03396 8.65266 4.09843C8.54714 4.1629 8.45978 4.25556 8.39949 4.36699L7.13798 6.75372L4.96682 5.74048C4.8499 5.6856 4.72068 5.66614 4.59377 5.68431C4.46686 5.70247 4.34733 5.75753 4.24867 5.84326C4.15002 5.929 4.07619 6.04198 4.03552 6.16945C3.99486 6.29692 3.98898 6.43379 4.01855 6.56458L5.10842 11.4416C5.12926 11.536 5.16815 11.625 5.22273 11.7032C5.27731 11.7814 5.34644 11.8471 5.42594 11.8964C5.53358 11.964 5.65664 11.9998 5.78208 12C5.84306 11.9999 6 12 6 12C6 12 9.96618 12 12 12C12.1992 12 12.4081 11.9955 12.5702 11.8964C12.6502 11.8477 12.7197 11.7822 12.7743 11.7039C12.829 11.6256 12.8676 11.5363 12.8877 11.4416L13.9819 6.56458C14.0111 6.43375 14.0049 6.29695 13.964 6.16963C13.923 6.0423 13.849 5.92953 13.7502 5.84406Z" fill="white"></path>
    <rect id="Rectangle 1161" x="5" y="13" width="8" height="1" rx="0.5" fill="white"></rect>
  </g>
  <defs>
    <linearGradient id="paint0_linear_668_706" x1="8.175" y1="1.17569e-05" x2="22.2753" y2="0.536807" gradientUnits="userSpaceOnUse">
      <stop stop-color="#492CDD"></stop>
      <stop offset="1" stop-color="#AD38E2"></stop>
    </linearGradient>
  </defs>
</svg>
